<svg width="182" height="42" viewBox="0 0 182 42" fill="none" xmlns="http://www.w3.org/2000/svg">
<path d="M29.2129 23.3422C28.0124 17.3015 33.3224 14.0873 33.7148 13.8594C32.9068 12.788 31.9602 11.9674 30.9906 11.3975C27.8046 9.43706 23.9491 9.2547 21.6404 10.2577C21.6173 10.2577 21.5942 10.2805 21.5711 10.2805C19.3317 11.2379 16.769 11.2379 14.5296 10.2805C14.5065 10.2805 14.4834 10.2577 14.4603 10.2577C12.1516 9.2547 8.29613 9.43706 5.11013 11.3975C1.92414 13.3579 -1.14641 17.7574 0.423504 26.2145C1.99341 34.6715 7.69588 39.8005 7.69588 39.8005C7.69588 39.8005 10.4201 42.1256 13.9986 40.5755C16.238 39.6181 17.2539 39.4358 17.7156 39.4586C17.9465 39.4586 18.1542 39.4586 18.3851 39.4586C18.8468 39.4586 19.8627 39.6181 22.1021 40.5755C25.7037 42.1256 28.4048 39.8005 28.4048 39.8005C28.4048 39.8005 32.3989 36.1988 34.6383 30.0669C32.7221 29.2006 29.9978 27.3086 29.2129 23.3422Z" fill="white"/>
<path d="M17.0465 9.93878C17.0465 9.93878 16.0306 1.50449 25.6579 0L25.6117 1.13977C25.4501 5.79002 21.7562 9.59685 17.0465 9.93878Z" fill="white"/>
<path d="M81.8874 22.062C81.6565 21.0362 81.264 20.1244 80.733 19.3493C80.202 18.5515 79.4863 17.9132 78.6321 17.4573C77.7779 17.0014 76.739 16.7734 75.5616 16.7734C75.0075 16.7734 74.4765 16.8418 73.9916 16.9558C73.5068 17.0698 72.9989 17.2749 72.5372 17.5257C72.0754 17.7764 71.6137 18.0956 71.175 18.4603C70.9903 18.5971 70.8056 18.7566 70.621 18.939V16.7734H67.7812V39.6372H70.8057V32.4338C70.9442 32.5478 71.0827 32.6618 71.1981 32.7758C71.5906 33.0949 72.0062 33.3685 72.4217 33.5736C72.8373 33.8016 73.276 33.9611 73.7146 34.0523C74.1533 34.1663 74.615 34.2119 75.0998 34.2119C76.2311 34.2119 77.27 33.9839 78.1704 33.5736C79.0708 33.1405 79.8326 32.525 80.4329 31.75C81.0332 30.9749 81.4949 30.0175 81.795 28.9234C82.0952 27.852 82.2568 26.621 82.2568 25.2761C82.2337 24.1591 82.1182 23.065 81.8874 22.062ZM78.8861 27.8064C78.7245 28.513 78.4936 29.1741 78.1704 29.744C77.8471 30.2911 77.4547 30.7242 76.9468 31.0661C76.4619 31.3853 75.8848 31.5448 75.2153 31.5448C74.4534 31.5448 73.7608 31.3169 73.0451 30.8154C72.3294 30.3139 71.5906 29.6072 70.8057 28.6954V22.4039C71.2443 21.8796 71.6599 21.4237 72.0523 21.059C72.4679 20.6714 72.8835 20.3523 73.2529 20.1016C73.6223 19.8736 73.9916 19.6912 74.3149 19.6001C74.6612 19.5089 75.0075 19.4405 75.3769 19.4405C76.0925 19.4405 76.6697 19.6001 77.1315 19.9192C77.5932 20.2383 77.9857 20.6714 78.2627 21.2185C78.5628 21.7884 78.7706 22.4495 78.9092 23.1789C79.0477 23.9312 79.1169 24.7518 79.1169 25.5724C79.1169 26.3247 79.0477 27.0769 78.8861 27.8064Z" fill="white"/>
<path d="M100.036 22.062C99.8049 21.0362 99.4124 20.1244 98.8814 19.3493C98.3504 18.5515 97.6348 17.9132 96.7805 17.4573C95.9263 17.0014 94.8874 16.7734 93.71 16.7734C93.1559 16.7734 92.6249 16.8418 92.14 16.9558C91.6552 17.0698 91.1704 17.2749 90.6856 17.5257C90.2238 17.7764 89.7621 18.0956 89.3235 18.4603C89.1388 18.5971 88.9541 18.7566 88.7694 18.939V16.7734H85.9297V39.6372H88.9541V32.4338C89.0926 32.5478 89.2311 32.6618 89.3465 32.7758C89.739 33.0949 90.1546 33.3685 90.5702 33.5736C90.9857 33.8016 91.4244 33.9611 91.863 34.0523C92.3017 34.1663 92.7634 34.2119 93.2482 34.2119C94.3795 34.2119 95.4184 33.9839 96.3188 33.5736C97.2192 33.1405 97.981 32.525 98.5813 31.75C99.1816 30.9749 99.6433 30.0175 99.9434 28.9234C100.244 27.852 100.405 26.621 100.405 25.2761C100.382 24.1591 100.267 23.065 100.036 22.062ZM97.0114 27.8064C96.8498 28.513 96.6189 29.1741 96.2957 29.744C95.9725 30.2911 95.58 30.7242 95.0721 31.0661C94.5873 31.3853 94.0101 31.5448 93.3406 31.5448C92.5787 31.5448 91.8861 31.3169 91.1704 30.8154C90.4547 30.3139 89.7159 29.6072 88.931 28.6954V22.4039C89.3696 21.8796 89.7852 21.4237 90.1777 21.059C90.5932 20.6714 91.0088 20.3523 91.3782 20.1016C91.7476 19.8736 92.117 19.6912 92.4402 19.6001C92.7865 19.5089 93.1328 19.4405 93.5022 19.4405C94.2179 19.4405 94.795 19.6001 95.2568 19.9192C95.7185 20.2383 96.111 20.6714 96.388 21.2185C96.6882 21.7884 96.896 22.4495 97.0345 23.1789C97.173 23.9312 97.2423 24.7518 97.2423 25.5724C97.2654 26.3247 97.173 27.0769 97.0114 27.8064Z" fill="white"/>
<path d="M151.563 19.122C150.917 18.3698 150.086 17.7771 149.116 17.3896C148.147 17.002 147.038 16.7969 145.769 16.7969C144.453 16.7969 143.275 17.0248 142.259 17.4579C141.244 17.8911 140.389 18.5293 139.72 19.3272C139.05 20.125 138.542 21.0596 138.219 22.1538C137.896 23.2252 137.734 24.3877 137.734 25.6415C137.734 26.9408 137.896 28.1262 138.196 29.152C138.519 30.2005 139.004 31.1352 139.651 31.8874C140.297 32.6397 141.128 33.2323 142.098 33.6426C143.067 34.053 144.176 34.2353 145.445 34.2353C146.761 34.2353 147.939 34.0074 148.932 33.5515C149.947 33.0956 150.802 32.4573 151.471 31.6595C152.141 30.8616 152.649 29.9042 152.995 28.8328C153.318 27.7614 153.503 26.5989 153.503 25.3451C153.503 24.0686 153.341 22.8832 153.018 21.8346C152.695 20.7861 152.21 19.8742 151.563 19.122ZM150.386 25.5275C150.386 26.3937 150.294 27.2144 150.086 27.9666C149.901 28.6961 149.601 29.3115 149.232 29.8358C148.862 30.3373 148.354 30.7476 147.777 31.044C147.177 31.3403 146.438 31.4771 145.607 31.4771C144.684 31.4771 143.922 31.3175 143.321 31.0212C142.721 30.7248 142.259 30.2917 141.89 29.7674C141.521 29.2203 141.267 28.5821 141.105 27.8526C140.943 27.1004 140.851 26.3025 140.851 25.4591C140.851 24.5929 140.943 23.7723 141.151 23.0428C141.336 22.3134 141.636 21.6979 142.029 21.1736C142.398 20.6721 142.906 20.2618 143.483 19.9654C144.083 19.6691 144.822 19.5323 145.653 19.5323C146.577 19.5323 147.339 19.6919 147.916 20.011C148.516 20.3302 148.978 20.7405 149.347 21.2876C149.716 21.8347 149.97 22.4729 150.132 23.2024C150.294 23.909 150.386 24.7069 150.386 25.5275Z" fill="white"/>
<path d="M57.3867 11.8965H53.8083L46.3281 34.2131H49.3756L51.0378 27.8076H60.0187L61.7502 34.2131H64.8438L57.3867 11.8965ZM52.0075 25.1178L55.4936 15.3158L59.049 25.1178H52.0075Z" fill="white"/>
<path d="M123.971 25.139C123.648 24.4552 123.233 23.8625 122.702 23.361C122.194 22.8595 121.593 22.4264 120.947 22.0845C120.324 21.7425 119.677 21.4006 119.031 21.1043C118.384 20.8079 117.761 20.5116 117.138 20.2152C116.56 19.9417 116.029 19.6226 115.568 19.2578C115.129 18.9159 114.783 18.5512 114.506 18.1181C114.252 17.7077 114.136 17.2062 114.136 16.6364C114.136 16.2488 114.206 15.8613 114.344 15.4966C114.483 15.1547 114.69 14.8583 114.967 14.5848C115.244 14.334 115.614 14.1061 116.029 13.9465C116.468 13.7869 116.999 13.6958 117.622 13.6958C118.246 13.6958 118.823 13.7642 119.308 13.9237C119.816 14.0833 120.254 14.2429 120.601 14.4252C120.97 14.6304 121.293 14.7899 121.524 14.9495L122.771 12.3736C122.632 12.2369 122.378 12.0773 121.986 11.8721C121.64 11.6898 121.224 11.5074 120.762 11.3706C120.324 11.2339 119.839 11.0971 119.354 11.0059C118.846 10.9147 118.338 10.8691 117.853 10.8691C116.884 10.8691 115.96 11.0059 115.129 11.2567C114.298 11.5302 113.559 11.9177 112.959 12.4192C112.359 12.9207 111.874 13.559 111.527 14.2884C111.204 15.0179 111.02 15.8385 111.02 16.7503C111.02 17.685 111.181 18.5056 111.504 19.1894C111.828 19.8733 112.243 20.466 112.774 20.9675C113.282 21.469 113.882 21.9021 114.529 22.2668C115.152 22.6087 115.799 22.9507 116.445 23.247C117.091 23.5434 117.715 23.8397 118.315 24.136C118.892 24.4096 119.423 24.7287 119.885 25.0706C120.324 25.3898 120.67 25.7773 120.924 26.2104C121.178 26.6207 121.293 27.1222 121.293 27.6921C121.293 28.262 121.201 28.7863 120.993 29.2422C120.785 29.6753 120.508 30.0628 120.139 30.3592C119.769 30.6555 119.331 30.9063 118.8 31.0658C118.269 31.2254 117.692 31.3166 117.045 31.3166C116.237 31.3166 115.545 31.2254 114.944 31.043C114.321 30.8607 113.813 30.6555 113.374 30.4276C112.936 30.1996 112.566 29.9944 112.312 29.8121L111.689 32.8895C112.035 33.0946 112.474 33.277 112.982 33.4593C113.49 33.6417 114.067 33.8013 114.713 33.938C115.36 34.0748 116.076 34.1432 116.814 34.1432C117.899 34.1432 118.915 33.9836 119.839 33.7101C120.762 33.4137 121.593 32.9806 122.263 32.388C122.955 31.8181 123.486 31.1114 123.879 30.268C124.248 29.4474 124.456 28.5127 124.456 27.4642C124.456 26.6435 124.295 25.8229 123.971 25.139Z" fill="white"/>
<path d="M134.384 31.2731C134.222 31.3415 134.06 31.3871 133.853 31.4327C133.668 31.4783 133.46 31.5011 133.229 31.5011C132.306 31.5011 131.983 31.1363 131.821 30.84C131.521 30.3157 131.382 29.4951 131.382 28.4237V19.7159H135.053V17.0488H131.382V13.7891L128.358 15.1112V17.0488H126.719V19.7159H128.358V28.6972C128.358 29.5862 128.45 30.3613 128.612 31.0224C128.773 31.729 129.074 32.2989 129.443 32.7776C129.835 33.2563 130.343 33.5982 130.967 33.849C131.544 34.0769 132.26 34.1909 133.091 34.1909C133.345 34.1909 133.599 34.1681 133.853 34.1453C134.107 34.1225 134.361 34.0769 134.591 34.0085C134.845 33.9402 135.053 33.8718 135.261 33.8034L134.799 31.0907C134.661 31.1591 134.522 31.2047 134.384 31.2731Z" fill="white"/>
<path d="M163.912 16.7728C163.866 16.7728 163.82 16.7728 163.797 16.7728C163.427 16.7728 163.035 16.8184 162.689 16.9096C162.319 17.0007 161.927 17.1831 161.534 17.4111C161.165 17.639 160.772 17.981 160.38 18.3913C160.264 18.528 160.126 18.6648 160.01 18.8016V16.75H157.102V34.1657H160.126V22.9275C160.518 22.3121 160.888 21.7878 161.211 21.3547C161.557 20.9215 161.881 20.5568 162.158 20.2833C162.435 20.0325 162.712 19.8502 162.966 19.7362C163.196 19.6222 163.427 19.5766 163.658 19.5766C163.727 19.5766 163.797 19.5766 163.889 19.5766L164.42 19.6222V16.75L163.912 16.7728Z" fill="white"/>
<path d="M178.989 30.4487C178.92 30.4715 178.85 30.5171 178.781 30.5399C178.527 30.6539 178.204 30.7906 177.788 30.9274C177.396 31.0642 176.934 31.2009 176.38 31.3149C175.849 31.4289 175.226 31.4973 174.556 31.4973C173.61 31.4973 172.825 31.3605 172.201 31.1098C171.578 30.859 171.093 30.4715 170.701 29.9928C170.308 29.5141 170.031 28.8986 169.87 28.2148C169.731 27.6221 169.639 26.961 169.616 26.2544H179.635C179.936 26.2544 180.259 26.1404 180.559 25.9352C180.905 25.6845 181.09 25.2742 181.09 24.7043V24.294C181.09 23.3138 180.951 22.3563 180.697 21.4673C180.443 20.5555 180.005 19.7349 179.451 19.051C178.874 18.3444 178.135 17.7973 177.257 17.387C176.38 16.9766 175.318 16.7715 174.071 16.7715C172.94 16.7715 171.878 16.9766 170.932 17.3642C169.985 17.7745 169.177 18.3672 168.508 19.1194C167.838 19.8717 167.33 20.8063 166.961 21.8776C166.614 22.949 166.43 24.1572 166.43 25.5021C166.43 26.8926 166.591 28.1236 166.938 29.195C167.284 30.2891 167.792 31.2009 168.461 31.9304C169.131 32.6826 169.985 33.2525 170.978 33.6173C171.947 33.982 173.079 34.1871 174.325 34.1871C175.087 34.1871 175.803 34.1187 176.449 34.0048C177.096 33.8908 177.673 33.754 178.158 33.6173C178.481 33.5261 178.758 33.4349 178.989 33.3437V30.4487ZM169.962 22.3563C170.147 21.7865 170.447 21.285 170.793 20.8746C171.139 20.4643 171.601 20.1224 172.109 19.8717C172.617 19.6209 173.24 19.4841 173.933 19.4841C175.295 19.4841 176.288 19.8717 176.98 20.6695C177.604 21.3989 177.95 22.4019 177.973 23.6557H169.639C169.708 23.1998 169.8 22.7667 169.962 22.3563Z" fill="white"/>
</svg>
