<svg width="204" height="47" viewBox="0 0 204 47" fill="none" xmlns="http://www.w3.org/2000/svg">
<path d="M31.6462 15.6844L24.0792 23.1994L1.82031 0.550427C2.93846 -0.125662 4.39465 -0.229675 5.66881 0.524423L31.6462 15.6844Z" fill="#00F076"/>
<path d="M31.8299 31.1322L5.69647 46.3962C4.13626 47.3063 2.31602 46.9423 1.17188 45.8501L24.0809 23.2012L31.8299 31.1322Z" fill="#F73448"/>
<path d="M39.3941 26.737L31.9051 31.1056L31.8531 31.1316L24.0781 23.2005L31.6451 15.6855L31.6971 15.7115L39.3681 20.1841C41.8904 21.6663 41.8904 25.2548 39.3941 26.737Z" fill="#FFCA00"/>
<path d="M1.17015 45.85C1.14415 45.824 1.14415 45.824 1.11815 45.798C0.442058 45.1219 0 44.2118 0 43.1197V3.80255C0 2.39836 0.728095 1.25421 1.76823 0.604128C1.79423 0.604128 1.79423 0.578125 1.82024 0.578125L24.0531 23.2271L1.17015 45.85Z" fill="#00D2FF"/>
<path d="M80.2713 21.6591H77.2549H69.4019V24.6755H77.0209C76.1108 28.03 73.0424 30.5003 69.4019 30.5003C65.0333 30.5003 61.4969 26.9638 61.4969 22.5953C61.4969 18.2267 65.0333 14.6902 69.4019 14.6902C71.4562 14.6902 73.3544 15.4703 74.7586 16.7705L76.8909 14.6382C74.9406 12.792 72.3143 11.6738 69.4019 11.6738C63.3691 11.6738 58.4805 16.5625 58.4805 22.5953C58.4805 28.628 63.3691 33.5167 69.4019 33.5167C75.4347 33.5167 80.3233 28.628 80.3233 22.5953C80.3233 22.2832 80.2973 21.9712 80.2713 21.6591Z" fill="white"/>
<path d="M88.8791 19.3926C85.0306 19.3926 81.9102 22.539 81.9102 26.4135C81.9102 30.288 85.0306 33.4344 88.8791 33.4344C92.7276 33.4344 95.848 30.288 95.848 26.4135C95.848 22.539 92.7276 19.3926 88.8791 19.3926ZM88.8791 30.652C86.7728 30.652 85.0566 28.8058 85.0566 26.5175C85.0566 24.2292 86.7728 22.383 88.8791 22.383C90.9853 22.383 92.7016 24.2292 92.7016 26.5175C92.7016 28.8058 90.9853 30.652 88.8791 30.652Z" fill="white"/>
<path d="M104.406 19.3926C100.558 19.3926 97.4375 22.539 97.4375 26.4135C97.4375 30.288 100.558 33.4344 104.406 33.4344C108.255 33.4344 111.375 30.288 111.375 26.4135C111.375 22.539 108.255 19.3926 104.406 19.3926ZM104.406 30.652C102.3 30.652 100.584 28.8058 100.584 26.5175C100.584 24.2292 102.3 22.383 104.406 22.383C106.513 22.383 108.229 24.2292 108.229 26.5175C108.229 28.8058 106.513 30.652 104.406 30.652Z" fill="white"/>
<path d="M130.454 11.6738H127.438V33.7247H130.454V11.6738Z" fill="white"/>
<path d="M142.862 28.2365C142.42 29.1726 141.64 29.8747 140.678 30.2648C139.664 30.6548 138.545 30.6548 137.531 30.2128C136.881 29.9267 136.335 29.5107 135.919 28.9646L146.164 24.9601L146.008 24.44C145.956 24.232 145.878 24.05 145.8 23.868C145.098 22.0997 143.772 20.6955 142.03 19.9414C140.288 19.1873 138.363 19.1353 136.569 19.8374C134.801 20.5395 133.397 21.8657 132.643 23.6079C131.889 25.3501 131.837 27.2744 132.539 29.0686C133.241 30.8369 134.567 32.241 136.309 32.9951C137.219 33.3852 138.181 33.5932 139.169 33.5932C140.054 33.5932 140.938 33.4372 141.77 33.0992C143.46 32.4231 144.838 31.1749 145.618 29.5107L145.878 28.9386L143.122 27.7425L142.862 28.2365ZM141.9 23.3739L135.061 26.0522C135.113 25.6102 135.217 25.1941 135.399 24.7781C135.841 23.7639 136.647 23.0098 137.661 22.5938C138.155 22.4118 138.649 22.3077 139.143 22.3077C140.158 22.3077 141.146 22.6978 141.9 23.3739Z" fill="white"/>
<path d="M122.864 19.3958V20.6439C121.85 19.8638 120.602 19.3958 119.276 19.3958C115.791 19.3958 112.957 22.5422 112.957 26.4167C112.957 30.2912 115.791 33.4376 119.276 33.4376C120.602 33.4376 121.85 32.9695 122.864 32.1894V33.6976C122.864 34.5557 122.24 36.9741 119.406 36.9741C116.571 36.9741 115.765 34.4257 115.765 34.4257L113.035 35.6999C113.035 35.6999 114.075 39.7044 119.692 39.7044C122.734 39.7044 124.295 37.9362 125.101 36.324C125.647 35.2318 125.907 34.0097 125.907 32.7875V19.3438H122.864V19.3958ZM119.276 30.6552C117.352 30.6552 115.817 28.809 115.817 26.5207C115.817 24.2324 117.378 22.3861 119.276 22.3861C121.2 22.3861 122.734 24.2324 122.734 26.5207C122.734 28.809 121.2 30.6552 119.276 30.6552Z" fill="white"/>
<path d="M159.606 11.6738H156.59V33.7247H159.606V11.6738Z" fill="white"/>
<path d="M163.824 11.6738V14.6902C165.93 14.6902 167.647 16.5365 167.647 18.8248C167.647 21.1131 165.93 22.9593 163.824 22.9593V25.7417C167.673 25.7417 170.793 22.5953 170.793 18.7207C170.793 14.8202 167.673 11.6738 163.824 11.6738Z" fill="white"/>
<path d="M163.821 11.6738H158.75V14.6902H163.821V11.6738Z" fill="white"/>
<path d="M163.821 22.9336H158.75V25.716H163.821V22.9336Z" fill="white"/>
<path d="M175.391 11.6738H172.375V33.7247H175.391V11.6738Z" fill="white"/>
<path d="M185.217 31.7991L185.581 31.4091V33.5153H188.129V24.4141C188.129 23.556 188.025 22.8279 187.817 22.2039C187.609 21.6058 187.297 21.1117 186.881 20.7477C186.439 20.3576 185.893 20.0716 185.217 19.8896C184.541 19.7075 183.683 19.6035 182.721 19.6035C182.175 19.6035 181.628 19.6555 181.134 19.7335C180.614 19.8115 180.146 19.9416 179.704 20.0716C179.314 20.2016 178.976 20.3316 178.69 20.4616L178.846 22.8539C179.028 22.7499 179.236 22.6719 179.47 22.5679C179.834 22.4119 180.276 22.2559 180.744 22.1258C181.238 21.9958 181.785 21.9178 182.409 21.9178C182.877 21.9178 183.293 21.9698 183.631 22.0738C183.969 22.1779 184.255 22.3599 184.463 22.5679C184.671 22.8019 184.827 23.062 184.905 23.4C184.983 23.7121 185.035 24.0761 185.035 24.4922V25.4803H183.579C182.461 25.4803 181.472 25.5583 180.64 25.7403C179.808 25.8963 179.106 26.1564 178.56 26.4944C178.014 26.8325 177.598 27.2485 177.338 27.7686C177.078 28.2886 176.922 28.8867 176.922 29.5888C176.922 30.2389 177.026 30.811 177.234 31.305C177.442 31.7731 177.754 32.1892 178.144 32.5272C178.534 32.8652 179.002 33.0993 179.548 33.2813C180.094 33.4373 180.692 33.5413 181.342 33.5413C182.123 33.5413 182.851 33.3853 183.475 33.0993C184.151 32.7612 184.723 32.3452 185.217 31.7991ZM183.657 30.993C183.215 31.279 182.695 31.4091 182.149 31.4091C181.498 31.4091 180.978 31.227 180.614 30.889C180.224 30.5509 180.042 30.0569 180.042 29.4848C180.042 29.1468 180.12 28.8347 180.25 28.5487C180.38 28.2626 180.588 28.0286 180.874 27.8466C181.16 27.6646 181.524 27.5085 181.941 27.4305C182.357 27.3525 182.877 27.3005 183.475 27.3005H185.061V29.7708L185.009 29.8228C184.541 30.3429 184.099 30.733 183.657 30.993Z" fill="white"/>
<path d="M200.093 19.6309L197.908 24.7275L196.53 27.8739L195.62 25.7417L192.994 19.6309H189.691L193.982 29.5382L194.944 31.7484L192.448 37.8072H195.724L197.908 32.3205L199.547 28.524L203.395 19.6309H200.093Z" fill="white"/>
</svg>
