<svg width="31" height="37" viewBox="0 0 31 37" fill="none" xmlns="http://www.w3.org/2000/svg">
<path d="M2.35945 25.2321C1.06172 25.2321 0 24.092 0 22.6984V13.8306C0 12.437 1.06172 11.2969 2.35945 11.2969C3.65717 11.2969 4.71889 12.437 4.71889 13.8306V22.6985C4.71889 24.092 3.65717 25.2321 2.35945 25.2321Z" fill="white"/>
<path d="M28.6407 25.2321C27.343 25.2321 26.2812 24.092 26.2812 22.6984V13.8306C26.2812 12.437 27.343 11.2969 28.6407 11.2969C29.9384 11.2969 31.0001 12.437 31.0001 13.8306V22.6985C31.0001 24.092 29.9384 25.2321 28.6407 25.2321Z" fill="white"/>
<path d="M22.5413 28.3094V34.6104C22.5413 35.6816 21.7092 36.5007 20.621 36.5007C19.5328 36.5007 18.7007 35.6816 18.7007 34.6104V28.3094H12.2995V34.6104C12.2995 35.6816 11.4034 36.5007 10.3792 36.5007C9.35502 36.5007 8.45888 35.6816 8.45888 34.6104V28.3094H5.89844V11.2969H25.1017V28.3094H22.5413Z" fill="white"/>
<path d="M24.7037 9.78988H5.82812C6.07979 7.29318 8.72241 2.82227 15.3288 2.82227C21.6207 2.82227 24.452 7.29318 24.7037 9.78988Z" fill="white"/>
<path d="M13.3784 6.88671C13.3784 6.248 12.8121 5.72544 12.12 5.72544C11.4279 5.72544 10.8616 6.248 10.8616 6.88671C10.8616 7.52542 11.4279 8.04798 12.12 8.04798C12.8121 8.04798 13.3784 7.52542 13.3784 6.88671Z" fill="#1B171F"/>
<path d="M19.6702 6.88671C19.6702 6.248 19.1039 5.72544 18.4118 5.72544C17.7197 5.72544 17.1534 6.248 17.1534 6.88671C17.1534 7.52542 17.7197 8.04798 18.4118 8.04798C19.1039 8.04798 19.6702 7.52542 19.6702 6.88671Z" fill="#1B171F"/>
<path d="M10.0192 5.14508C9.77432 5.14508 9.59058 4.9896 9.46816 4.67873L8.30475 1.56991C8.18226 1.18131 8.30475 0.714968 8.61092 0.559581C8.91708 0.404104 9.28449 0.559581 9.40691 0.948184L10.5703 4.05701C10.6928 4.44561 10.5703 4.91195 10.2642 5.06734C10.203 5.06734 10.1417 5.14508 10.0192 5.14508Z" fill="white"/>
<path d="M20.016 4.33219C19.9547 4.33219 19.8323 4.33219 19.7711 4.26805C19.4649 4.13978 19.3424 3.75513 19.4649 3.43453L20.6283 0.869751C20.7508 0.549154 21.1181 0.420886 21.4243 0.549154C21.7305 0.677423 21.853 1.06208 21.7305 1.38268L20.5671 3.94746C20.5059 4.20392 20.261 4.33219 20.016 4.33219Z" fill="white"/>
</svg>
